# xmcd CD database file
#
# Track frame offsets:
#	150
#	20637
#	45800
#	69230
#	96625
#	112042
#	129405
#	147200
#	171630
#
# Disc length: 2619 seconds
#
# Revision: 0
# Processed by: cddbd v1.5.1PL0 Copyright (c) Steve Scherf et al.
# Submitted via: CDex 1.51
#
DISCID=7e0a3909
DTITLE=Lil' Fi and the Delta Rhythm Kings - Yip-yah!
DYEAR=1900
DGENRE=Blues
TTITLE0=Ain't Gonna Let No Body Break My Heart
TTITLE1=Love Me Like A Man
TTITLE2=Medley
TTITLE3=Brothers
TTITLE4=Wade In The Water
TTITLE5=Wise Up
TTITLE6=All Night Long
TTITLE7=Catfish Boogie
TTITLE8=W.O.M.A.N.
EXTD=
EXTT0=
EXTT1=
EXTT2=
EXTT3=
EXTT4=
EXTT5=
EXTT6=
EXTT7=
EXTT8=
PLAYORDER=
